<svg width="27" height="28" viewBox="0 0 27 28" fill="none" xmlns="http://www.w3.org/2000/svg">
<path d="M24.1071 0H2.89286C2.12562 0 1.38981 0.316071 0.847298 0.87868C0.304782 1.44129 0 2.20435 0 3L0 25C0 25.7956 0.304782 26.5587 0.847298 27.1213C1.38981 27.6839 2.12562 28 2.89286 28H11.1646V18.4806H7.36775V14H11.1646V10.585C11.1646 6.70062 13.3945 4.555 16.8099 4.555C18.4456 4.555 20.156 4.8575 20.156 4.8575V8.67H18.2714C16.4146 8.67 15.8354 9.865 15.8354 11.0906V14H19.9806L19.3177 18.4806H15.8354V28H24.1071C24.8744 28 25.6102 27.6839 26.1527 27.1213C26.6952 26.5587 27 25.7956 27 25V3C27 2.20435 26.6952 1.44129 26.1527 0.87868C25.6102 0.316071 24.8744 0 24.1071 0Z" fill="black"/>
</svg>
