<svg width="27" height="28" viewBox="0 0 27 28" fill="none" xmlns="http://www.w3.org/2000/svg">
<path d="M25.0714 0H1.92254C0.86183 0 0 0.90625 0 2.01875V25.9813C0 27.0938 0.86183 28 1.92254 28H25.0714C26.1321 28 27 27.0938 27 25.9813V2.01875C27 0.90625 26.1321 0 25.0714 0ZM8.16027 24H4.15848V10.6375H8.1663V24H8.16027ZM6.15937 8.8125C4.87567 8.8125 3.83906 7.73125 3.83906 6.40625C3.83906 5.08125 4.87567 4 6.15937 4C7.43705 4 8.47969 5.08125 8.47969 6.40625C8.47969 7.7375 7.44308 8.8125 6.15937 8.8125ZM23.1609 24H19.1592V17.5C19.1592 15.95 19.129 13.9563 17.0799 13.9563C14.9946 13.9563 14.6752 15.6438 14.6752 17.3875V24H10.6734V10.6375H14.5125V12.4625H14.5667C15.1031 11.4125 16.4109 10.3062 18.3576 10.3062C22.4076 10.3062 23.1609 13.075 23.1609 16.675V24Z" fill="black"/>
</svg>
