<svg width="41" height="49" viewBox="0 0 41 49" fill="none" xmlns="http://www.w3.org/2000/svg">
<path d="M34.2792 25.8938C34.2574 21.879 36.0656 18.8487 39.7256 16.6171C37.6777 13.6744 34.5842 12.0553 30.4995 11.7381C26.6326 11.4318 22.4062 14.0025 20.8595 14.0025C19.2256 14.0025 15.4785 11.8475 12.5375 11.8475C6.45935 11.9459 0 16.7155 0 26.4189C0 29.285 0.522848 32.246 1.56854 35.3017C2.96281 39.3165 7.99522 49.1621 13.2455 48.998C15.9904 48.9323 17.9293 47.0398 21.5021 47.0398C24.966 47.0398 26.7633 48.998 29.8241 48.998C35.118 48.9214 39.6711 39.9729 41 35.9472C33.898 32.5887 34.2792 26.1016 34.2792 25.8938ZM28.114 7.93113C31.0877 4.38673 30.8154 1.15959 30.7282 0C28.1031 0.153153 25.064 1.79408 23.3321 3.81788C21.4259 5.9839 20.3039 8.66408 20.5436 11.6834C23.3866 11.9022 25.979 10.4363 28.114 7.93113Z" fill="white"/>
</svg>
