<svg width="29" height="28" viewBox="0 0 29 28" fill="none" xmlns="http://www.w3.org/2000/svg">
<path d="M25.8929 0H3.10714C1.39174 0 0 1.34375 0 3V25C0 26.6562 1.39174 28 3.10714 28H25.8929C27.6083 28 29 26.6562 29 25V3C29 1.34375 27.6083 0 25.8929 0ZM22.7275 9.925C22.7404 10.1 22.7404 10.2812 22.7404 10.4563C22.7404 15.875 18.4681 22.1187 10.6614 22.1187C8.25335 22.1187 6.02009 21.4438 4.14286 20.2812C4.48594 20.3188 4.81607 20.3312 5.16563 20.3312C7.1529 20.3312 8.97835 19.6812 10.4348 18.5812C8.57054 18.5437 7.00402 17.3625 6.46674 15.7375C7.12054 15.8312 7.7096 15.8313 8.38281 15.6625C6.44085 15.2812 4.98438 13.6312 4.98438 11.6375V11.5875C5.54754 11.8937 6.20781 12.0813 6.90045 12.1062C6.31813 11.7323 5.84077 11.2249 5.51095 10.6295C5.18113 10.034 5.00912 9.369 5.01027 8.69375C5.01027 7.93125 5.21741 7.23125 5.58638 6.625C7.67723 9.1125 10.8167 10.7375 14.3382 10.9125C13.7362 8.13125 15.8917 5.875 18.481 5.875C19.7045 5.875 20.8049 6.36875 21.5817 7.16875C22.5397 6.99375 23.4589 6.65 24.2746 6.18125C23.9574 7.13125 23.2906 7.93125 22.4103 8.4375C23.2647 8.35 24.0933 8.11875 24.8571 7.8C24.281 8.61875 23.556 9.34375 22.7275 9.925Z" fill="black"/>
</svg>
